<svg width="102" height="30" viewBox="0 0 102 30" fill="none" xmlns="http://www.w3.org/2000/svg">
<path d="M12.9177 26.0475V15.3085C12.9177 14.4859 12.7506 13.7725 12.4164 13.1684C12.0951 12.5514 11.6067 12.0758 10.9512 11.7417C10.2956 11.4075 9.48585 11.2404 8.52184 11.2404C7.6221 11.2404 6.83162 11.3946 6.15039 11.7031C5.482 12.0116 4.95501 12.4165 4.56941 12.9177C4.19666 13.419 4.01028 13.9589 4.01028 14.5373H0.443444C0.443444 13.7918 0.636246 13.0527 1.02185 12.3201C1.40746 11.5874 1.96016 10.9254 2.67994 10.3342C3.4126 9.7301 4.28663 9.25453 5.30206 8.90745C6.33033 8.54758 7.47429 8.3676 8.73396 8.3676C10.2506 8.3676 11.5874 8.62466 12.7442 9.13884C13.9139 9.65295 14.8265 10.4306 15.482 11.4717C16.1504 12.5 16.4846 13.7918 16.4846 15.347V25.0643C16.4846 25.7584 16.5424 26.4974 16.6581 27.2815C16.7866 28.0655 16.973 28.7403 17.2172 29.3059V29.6144H13.4961C13.3162 29.2031 13.1748 28.6568 13.072 27.9756C12.9691 27.2815 12.9177 26.6388 12.9177 26.0475ZM13.5347 16.9666L13.5733 19.473H9.96789C8.95248 19.473 8.04628 19.5565 7.24936 19.7237C6.45244 19.8779 5.78406 20.1157 5.24421 20.437C4.70437 20.7583 4.29306 21.1632 4.01028 21.6517C3.7275 22.1272 3.58611 22.6864 3.58611 23.329C3.58611 23.9846 3.73393 24.5822 4.02956 25.1221C4.32519 25.6619 4.76864 26.0926 5.3599 26.4139C5.96401 26.7224 6.70308 26.8766 7.57712 26.8766C8.66968 26.8766 9.63369 26.6452 10.4691 26.1825C11.3046 25.7198 11.9666 25.1542 12.455 24.4859C12.9563 23.8175 13.2262 23.1684 13.2648 22.5385L14.7879 24.2545C14.6979 24.7943 14.4537 25.392 14.0552 26.0475C13.6568 26.7031 13.1234 27.3329 12.455 27.937C11.7995 28.5283 11.0155 29.0231 10.1029 29.4216C9.20305 29.8071 8.18764 30 7.05656 30C5.64267 30 4.40231 29.7236 3.33547 29.171C2.28149 28.6182 1.45887 27.8791 0.867607 26.9537C0.289203 26.0154 0 24.9678 0 23.8111C0 22.6928 0.218509 21.7095 0.655527 20.8612C1.09254 20 1.72237 19.2866 2.54499 18.7211C3.36761 18.1426 4.35733 17.7056 5.51414 17.41C6.67095 17.1143 7.96272 16.9666 9.38943 16.9666H13.5347ZM30.7519 30C29.2995 30 27.982 29.7557 26.7994 29.2673C25.6298 28.7661 24.6208 28.0655 23.7725 27.1658C22.937 26.2661 22.2943 25.1992 21.8444 23.9653C21.3946 22.7314 21.1696 21.3817 21.1696 19.9164V19.1066C21.1696 17.41 21.4203 15.8998 21.9216 14.5758C22.4228 13.2391 23.1041 12.1079 23.9653 11.1825C24.8265 10.2571 25.8033 9.55652 26.8959 9.08095C27.9884 8.60539 29.1196 8.3676 30.2892 8.3676C31.7802 8.3676 33.0655 8.62466 34.1452 9.13884C35.2378 9.65295 36.1311 10.3728 36.8251 11.2982C37.5193 12.2108 38.0334 13.2905 38.3676 14.5373C38.7018 15.7712 38.8688 17.1208 38.8688 18.5861V20.1863H23.2905V17.2751H35.302V17.0051C35.2506 16.0797 35.0578 15.1799 34.7236 14.3059C34.4023 13.4319 33.8882 12.7121 33.1812 12.1466C32.4743 11.581 31.5103 11.2982 30.2892 11.2982C29.4794 11.2982 28.7339 11.4717 28.0527 11.8187C27.3714 12.153 26.7867 12.6543 26.2982 13.3226C25.8098 13.991 25.4306 14.8072 25.1606 15.7712C24.8907 16.7352 24.7557 17.847 24.7557 19.1066V19.9164C24.7557 20.9062 24.8907 21.838 25.1606 22.7121C25.4434 23.5733 25.8483 24.3316 26.3753 24.9871C26.9151 25.6427 27.5643 26.1568 28.3226 26.5296C29.0938 26.9023 29.9679 27.0887 30.9447 27.0887C32.2043 27.0887 33.2712 26.8316 34.1452 26.3175C35.0193 25.8034 35.7841 25.1157 36.4396 24.2545L38.5989 25.9704C38.1491 26.6517 37.5771 27.3007 36.883 27.9178C36.1889 28.5347 35.3342 29.036 34.3187 29.4216C33.3162 29.8071 32.1273 30 30.7519 30ZM49.1067 26.3946L54.8136 8.75322H58.4575L50.9576 29.6144H48.5668L49.1067 26.3946ZM44.3444 8.75322L50.2249 26.491L50.6298 29.6144H48.2391L40.6812 8.75322H44.3444ZM60.6362 19.4152V18.9717C60.6362 17.4678 60.8547 16.0733 61.2918 14.7879C61.7288 13.4897 62.3586 12.3651 63.1812 11.4139C64.0038 10.4498 64.9999 9.70436 66.1697 9.17738C67.3393 8.63753 68.6503 8.3676 70.1028 8.3676C71.5681 8.3676 72.8856 8.63753 74.0552 9.17738C75.2378 9.70436 76.2403 10.4498 77.063 11.4139C77.8984 12.3651 78.5347 13.4897 78.9719 14.7879C79.4086 16.0733 79.6273 17.4678 79.6273 18.9717V19.4152C79.6273 20.919 79.4086 22.3136 78.9719 23.599C78.5347 24.8843 77.8984 26.009 77.063 26.973C76.2403 27.9242 75.2442 28.6696 74.0745 29.2095C72.9177 29.7365 71.6066 30 70.1413 30C68.6761 30 67.3586 29.7365 66.1889 29.2095C65.0192 28.6696 64.0167 27.9242 63.1812 26.973C62.3586 26.009 61.7288 24.8843 61.2918 23.599C60.8547 22.3136 60.6362 20.919 60.6362 19.4152ZM64.203 18.9717V19.4152C64.203 20.4563 64.3251 21.4395 64.5694 22.365C64.8136 23.2776 65.1799 24.0874 65.6684 24.7943C66.1697 25.5013 66.793 26.0604 67.5385 26.4717C68.2841 26.8702 69.1516 27.0694 70.1413 27.0694C71.1182 27.0694 71.973 26.8702 72.7056 26.4717C73.4511 26.0604 74.0681 25.5013 74.5565 24.7943C75.045 24.0874 75.4113 23.2776 75.6555 22.365C75.9126 21.4395 76.0411 20.4563 76.0411 19.4152V18.9717C76.0411 17.9435 75.9126 16.973 75.6555 16.0604C75.4113 15.1349 75.0385 14.3188 74.5373 13.6118C74.0488 12.892 73.4318 12.3265 72.6863 11.9152C71.9537 11.5039 71.0925 11.2982 70.1028 11.2982C69.1259 11.2982 68.2647 11.5039 67.5192 11.9152C66.7866 12.3265 66.1697 12.892 65.6684 13.6118C65.1799 14.3188 64.8136 15.1349 64.5694 16.0604C64.3251 16.973 64.203 17.9435 64.203 18.9717ZM76.5231 0.0208249V2.75861H63.5861V0.0208249H76.5231ZM87.6864 0V29.6144H84.1003V0H87.6864ZM100.431 8.75322L91.3301 18.4897L86.2404 23.7725L85.9514 19.9743L89.5951 15.617L96.0732 8.75322H100.431ZM97.1725 29.6144L89.7302 19.6658L91.5813 16.4846L101.375 29.6144H97.1725Z" fill="#212121"/>
</svg>
